<svg width="68" height="77" viewBox="0 0 68 77" fill="none" xmlns="http://www.w3.org/2000/svg">
<rect width="68" height="77" fill="white"/>
<path d="M21.4774 75.2948C21.3663 75.2679 21.1493 75.1792 20.9036 75.0602C20.0122 74.6283 19.5524 74.3181 18.9429 73.7378C18.1258 72.9598 17.4334 72.1244 16.7391 71.0786C16.138 70.1734 15.9104 69.753 15.6081 68.9901C14.9476 67.3228 14.5396 65.7142 14.3473 64.0191C14.2109 62.8177 14.1988 61.4841 14.3134 60.3163C14.8457 54.8959 17.75 48.8667 22.4785 43.3658C22.5798 43.2479 22.6593 43.1481 22.6552 43.144C22.651 43.1398 22.4398 43.2273 22.1859 43.3383C19.8022 44.3804 17.777 45.4684 16.1821 46.5637C14.1866 47.9342 12.4028 49.614 10.7404 51.6882C10.6104 51.8504 10.3742 52.1357 10.2154 52.3223C9.45456 53.2162 8.76583 54.2211 8.11226 55.391C7.81233 55.9279 7.3031 56.9617 6.97134 57.7072C6.61889 58.4992 6.56431 58.592 6.28871 58.8679C5.94525 59.2116 5.61837 59.4126 5.30998 59.4695C5.19954 59.4899 5.18392 59.4871 5.09904 59.431C5.04863 59.3976 4.98444 59.3335 4.9564 59.2885C4.90778 59.2103 4.90556 59.1862 4.90838 58.7649C4.91535 57.7265 5.14193 56.1113 5.47327 54.7382C5.86865 53.0997 6.33595 51.8596 6.98121 50.7366C7.86744 49.1941 8.16418 48.7626 8.98013 47.8304C11.5506 44.8936 14.4868 42.7177 18.7629 40.5809C19.0915 40.4167 19.3567 40.2791 19.3522 40.2753C19.3477 40.2714 19.1401 40.2099 18.8908 40.1386C16.2255 39.3764 13.5355 38.1309 11.5165 36.7243C10.4808 36.0028 9.73297 35.3802 8.87039 34.5213C7.59924 33.2555 6.62184 31.9777 5.68292 30.3542C4.15436 27.7111 3.09013 24.4062 2.84237 21.5332C2.76543 20.641 2.77551 19.473 2.86612 18.7816C2.94618 18.1706 3.13415 17.7283 3.35209 17.6381C3.39198 17.6216 3.47273 17.6139 3.5439 17.6198C3.86584 17.6465 4.01198 17.9632 4.19085 19.022C4.35555 19.997 4.49112 20.5352 4.80105 21.4446C5.30122 22.9121 5.9026 24.3565 6.5635 25.6776C8.255 29.0587 10.2835 31.4289 13.0254 33.2281C15.033 34.5454 17.5516 35.6192 20.3301 36.3423C20.658 36.4276 21.4886 36.6165 21.6674 36.6464L21.7468 36.6597L21.6674 36.594C21.6238 36.5579 21.4072 36.3868 21.1861 36.2137C20.3504 35.5594 19.55 34.8856 18.6641 34.0906C18.0985 33.5831 16.5416 32.0348 16.0341 31.4752C12.4638 27.5384 10.2127 23.5339 9.13298 19.1984C8.57233 16.9473 8.39514 14.76 8.61273 12.7764C8.89004 10.2485 9.79399 8.05897 11.3274 6.20111C11.654 5.80542 12.4199 5.05487 12.8348 4.72385C13.8671 3.90041 14.9501 3.31232 16.2048 2.89393C18.8096 2.02528 21.8473 2.05777 24.6594 2.98435C25.4213 3.23537 25.8355 3.40546 26.5181 3.74755C27.4795 4.22938 28.1549 4.63806 28.5468 4.97513C28.8888 5.26938 30.3158 6.5404 31.3234 7.44838C32.3357 8.36049 33.1084 9.13421 33.7933 9.92124C33.8988 10.0425 33.9913 10.1417 33.9989 10.1417C34.0066 10.1417 34.1125 10.027 34.2344 9.88692C34.5296 9.5476 35.3525 8.68007 35.7014 8.34037C36.0717 7.97977 38.7039 5.61645 39.4494 4.97513C39.8413 4.63806 40.5167 4.22938 41.4781 3.74755C42.1607 3.40546 42.5749 3.23537 43.3368 2.98435C45.8248 2.16455 48.4888 2.04194 50.9049 2.63602C52.262 2.96972 53.5245 3.54031 54.6248 4.31722C55.4897 4.92797 56.3884 5.80476 57.0547 6.68802C57.4582 7.22278 57.8856 7.92685 58.1959 8.56773C58.8838 9.9884 59.2744 11.47 59.4348 13.267C59.4785 13.7568 59.4709 15.3127 59.4221 15.8601C59.0231 20.3339 57.2441 24.7151 54.153 28.8368C53.138 30.1903 52.1252 31.3466 50.7495 32.7226C49.375 34.0976 48.2461 35.0957 46.7189 36.2862C46.466 36.4833 46.2624 36.6479 46.2665 36.652C46.2878 36.6734 47.385 36.421 48.0016 36.2529C50.6428 35.5327 53.0273 34.5004 54.9348 33.2514C55.9894 32.5609 56.824 31.8843 57.6971 31.012C58.57 30.1398 59.2449 29.3111 59.9757 28.2141C61.1731 26.4165 62.3289 23.9862 63.1951 21.4446C63.5051 20.5352 63.6406 19.997 63.8053 19.022C63.9842 17.9632 64.1303 17.6465 64.4523 17.6198C64.5234 17.6139 64.6042 17.6216 64.6441 17.6381C64.8621 17.7284 65.0502 18.1712 65.13 18.7816C65.2213 19.4808 65.2316 20.672 65.1539 21.5445C64.8573 24.8753 63.5265 28.6199 61.6276 31.4671C60.8365 32.6534 60.1056 33.5457 59.1258 34.5213C57.6986 35.9423 56.2104 37.027 54.2612 38.0668C52.7212 38.8883 50.7836 39.6657 49.0714 40.1492C48.8408 40.2143 48.6486 40.2707 48.6443 40.2745C48.6401 40.2784 48.9716 40.45 49.381 40.656C52.0175 41.9822 54.0826 43.2924 55.89 44.7856C57.1962 45.8647 58.4792 47.1533 59.5524 48.4641C59.9203 48.9134 60.2215 49.3749 60.8586 50.4648C61.2434 51.1232 61.3197 51.2709 61.5957 51.8916C62.0087 52.8202 62.3904 54.0613 62.6684 55.3792C62.9099 56.5235 63.083 57.9203 63.0881 58.7649C63.0906 59.1859 63.0884 59.2104 63.0398 59.2885C63.0117 59.3335 62.9476 59.3976 62.8971 59.431C62.8123 59.4871 62.7966 59.4899 62.6862 59.4695C62.3778 59.4126 62.0509 59.2116 61.7075 58.8679C61.432 58.5921 61.3786 58.5013 61.0257 57.7085C60.0049 55.415 58.9954 53.7431 57.7525 52.2879C57.6089 52.1197 57.385 51.8497 57.255 51.6877C56.8946 51.239 56.4832 50.7537 56.1328 50.364C55.7194 49.9042 54.685 48.8703 54.2384 48.4703C52.3996 46.8237 50.4834 45.5747 47.724 44.224C46.8332 43.788 45.3634 43.1216 45.3412 43.1438C45.337 43.148 45.4513 43.2886 45.5952 43.4563C49.5522 48.0676 52.3085 53.2478 53.3189 57.9723C53.7615 60.0418 53.8714 62.0451 53.6501 64.0125C53.4605 65.6991 53.0448 67.3382 52.3877 68.9901C52.0796 69.7645 51.8749 70.144 51.2822 71.0396C50.5707 72.1147 49.8478 72.9903 49.0503 73.743C48.4352 74.3236 47.9783 74.631 47.0938 75.0596C46.6523 75.2735 46.4167 75.3426 46.1287 75.3426C45.9195 75.3426 45.7803 75.2845 45.6999 75.1637C45.6344 75.0652 45.635 74.9722 45.7029 74.7047C45.8134 74.2697 45.9187 74.0502 46.2397 73.5859C46.7864 72.7953 47.1455 72.1895 47.5609 71.3567C48.6508 69.1719 49.3047 66.645 49.4333 64.121C49.4467 63.8594 49.4751 63.4517 49.4966 63.2151C49.5501 62.6243 49.5488 61.3599 49.4941 60.8032C49.2794 58.6193 48.6745 56.5215 47.5644 54.111C46.3893 51.5591 44.5999 48.793 42.6128 46.4563C41.7541 45.4465 40.5344 44.1473 40.5017 44.2077C40.4931 44.2237 40.4737 44.3133 40.4587 44.4067C40.4436 44.5001 40.4108 44.6715 40.3858 44.7876C40.3608 44.9037 40.3439 45.002 40.3482 45.006C40.3525 45.0101 40.4224 45.0408 40.5034 45.0743C41.024 45.2895 41.5711 45.6935 41.8643 46.0791C42.0143 46.2764 42.163 46.5873 42.2289 46.8413C42.3013 47.1203 42.3027 47.5874 42.232 47.8717C41.8822 49.2792 40.4565 51.281 39.0664 52.3166C38.6435 52.6317 38.1366 52.785 37.8256 52.6919C37.7261 52.6621 37.5664 52.5352 37.5455 52.4692C37.5355 52.4377 37.582 52.3536 37.7114 52.1698C38.1809 51.5026 38.6498 50.6429 38.9438 49.9099C39.0789 49.5732 39.2937 48.8397 39.3279 48.5983C39.3837 48.2044 39.3132 47.9391 39.0883 47.6976L38.9447 47.5433L38.7324 47.7478C38.6156 47.8602 38.4334 48.022 38.3274 48.1072L38.1348 48.2621L38.0853 48.4632C37.9834 48.8776 37.7049 49.2978 37.3353 49.5949C36.8379 49.9947 36.2259 50.2505 35.7698 50.2493C35.4098 50.2484 34.9912 50.0416 34.7866 49.7637L34.7121 49.6626H33.9981H33.2841L33.2096 49.7637C33.005 50.0416 32.5864 50.2484 32.2264 50.2493C31.7703 50.2505 31.1583 49.9947 30.6609 49.5949C30.2912 49.2978 30.0128 48.8776 29.9109 48.4632L29.8614 48.2621L29.6688 48.1072C29.5628 48.022 29.3806 47.8602 29.2638 47.7478L29.0515 47.5433L28.9079 47.6976C28.683 47.9391 28.6124 48.2044 28.6682 48.5983C28.7025 48.84 28.9174 49.5736 29.0524 49.9099C29.3488 50.6478 29.8347 51.5356 30.3066 52.2015C30.3921 52.3222 30.4621 52.4349 30.4621 52.452C30.4621 52.5005 30.3243 52.63 30.2241 52.6758C30.0207 52.7686 29.613 52.7069 29.2778 52.5327C28.5421 52.1503 27.3887 50.9467 26.6621 49.8033C26.2274 49.1192 25.8779 48.3609 25.7561 47.8377C25.695 47.5751 25.6995 47.1137 25.7658 46.8458C25.891 46.3399 26.1937 45.9115 26.6896 45.5382C26.9206 45.3644 27.3118 45.1395 27.516 45.0633C27.5905 45.0354 27.6514 45.0045 27.6514 44.9945C27.6514 44.9845 27.6319 44.8864 27.6081 44.7764C27.5842 44.6665 27.5525 44.5001 27.5375 44.4067C27.5225 44.3133 27.5031 44.2237 27.4945 44.2077C27.4839 44.1882 27.371 44.2888 27.1513 44.5135C24.3625 47.3654 21.9539 50.8056 20.4317 54.111C19.323 56.5186 18.7172 58.6192 18.502 60.8032C18.448 61.3508 18.4466 62.6486 18.4993 63.2038C18.52 63.4217 18.5433 63.7479 18.5511 63.9285C18.6632 66.5281 19.3218 69.1246 20.4353 71.3567C20.8507 72.1895 21.2097 72.7953 21.7565 73.5859C21.9969 73.9336 22.0695 74.0581 22.1456 74.2524C22.2524 74.5253 22.3474 74.8785 22.3474 75.0024C22.3474 75.1162 22.2681 75.229 22.1441 75.2916C22.0156 75.3565 21.7385 75.3578 21.4774 75.2948ZM34.3796 36.2049C35.416 35.5118 37.5101 33.8988 38.5187 33.0168C39.0779 32.5278 39.5736 32.0592 39.7626 31.8409C40.4103 31.093 41.078 30.1776 41.5494 29.3917C42.0111 28.6218 42.4951 27.6319 42.5306 27.3849C42.5393 27.324 42.5754 27.1825 42.6108 27.0704C42.6958 26.8011 42.7833 26.3989 42.817 26.1224C42.8598 25.7724 42.8324 25.1213 42.7605 24.7794C42.3737 22.9394 40.9454 21.5912 39.0952 21.3194C38.591 21.2454 37.9265 21.2818 37.4094 21.4118C36.3948 21.667 35.4351 22.3402 34.883 23.1841C34.4468 23.8508 34.308 24.0726 34.1681 24.3259C34.0808 24.4839 34.0043 24.6131 33.9981 24.613C33.9919 24.613 33.9471 24.5391 33.8986 24.4488C33.7708 24.2112 33.6006 23.9278 33.4532 23.7073C33.3824 23.6014 33.2809 23.4434 33.2277 23.3562C32.6452 22.4029 31.6686 21.6838 30.5868 21.4118C29.8963 21.2382 29.1239 21.2382 28.4334 21.4118C27.8434 21.5602 27.2312 21.866 26.7691 22.2432C25.9805 22.8868 25.4487 23.7659 25.2362 24.7769C25.1638 25.1214 25.1362 25.7712 25.1791 26.1224C25.2129 26.3989 25.3004 26.8011 25.3854 27.0704C25.4208 27.1825 25.4569 27.3252 25.4658 27.3874C25.4839 27.515 25.758 28.1359 25.997 28.5908C26.5484 29.6399 27.2049 30.6094 28.0432 31.6123C28.3962 32.0346 28.7433 32.3747 29.4663 33.0068C30.2079 33.6551 31.7905 34.9002 32.8648 35.6805C33.1809 35.9101 33.9701 36.4522 33.9943 36.4563C33.9984 36.457 34.1718 36.3439 34.3796 36.2049ZM21.4856 30.6656C20.6121 27.9919 20.3298 25.374 20.6498 22.9146C20.8046 21.7249 21.1472 20.557 21.6164 19.6195C22.5296 17.795 24.2295 16.231 26.9399 14.7214C28.9747 13.5882 31.0076 12.8535 32.5588 12.6909C33.102 12.634 33.9771 12.582 34.1791 12.5947C35.5647 12.6816 35.9735 12.7367 36.8205 12.9503C38.4946 13.3725 40.7172 14.411 42.5434 15.6241C45.3415 17.483 46.6788 19.3619 47.2326 22.2126C47.6298 24.2577 47.5311 26.7496 46.9599 29.0973C46.8486 29.5545 46.6158 30.3629 46.4787 30.7677C46.3933 31.0201 46.3841 31.0631 46.4209 31.0374C46.6442 30.8811 48.2477 29.2907 48.8565 28.6217C51.1756 26.0732 52.8404 23.5086 53.9084 20.8397C55.1359 17.7721 55.5414 14.7753 55.0557 12.3611C54.6349 10.2692 53.486 8.54378 51.8368 7.52675C50.0788 6.44269 47.602 6.18609 44.9527 6.81354C44.2877 6.97104 43.1613 7.34996 42.4011 7.67191C41.6639 7.98415 41.0853 8.24095 40.9378 8.32147C40.4735 8.57483 39.9531 8.89814 39.2001 9.40115C38.6818 9.74735 38.6988 9.73571 38.0524 10.1902C36.8612 11.0277 35.1764 11.9927 34.4419 12.2583C34.0275 12.4081 33.9992 12.4093 33.6455 12.2907C32.9197 12.0476 31.1624 11.05 29.9408 10.1877C29.7226 10.0337 29.4166 9.82093 29.2608 9.71494C29.1049 9.60895 28.9009 9.47 28.8074 9.40617C28.035 8.8789 27.0296 8.27796 26.7108 8.15298C26.6484 8.12855 26.3767 8.01094 26.1068 7.89164C25.0277 7.41451 23.8893 7.01388 23.0435 6.81354C21.1659 6.36886 19.3439 6.36546 17.8154 6.80378C16.7534 7.10832 15.8356 7.63374 15.0541 8.38456C12.8302 10.5211 12.1838 13.9799 13.2239 18.1777C14.1235 21.808 16.0814 25.2633 19.1486 28.633C19.6878 29.2254 21.5494 31.0676 21.6089 31.0676C21.6133 31.0676 21.5578 30.8867 21.4856 30.6656Z" fill="#FFAEBC"/>
</svg>
