<svg width="267" height="312" viewBox="0 0 267 312" fill="none" xmlns="http://www.w3.org/2000/svg">
<path d="M79.7815 311.796C79.3071 311.681 78.3808 311.303 77.3318 310.794C73.5261 308.95 71.5626 307.626 68.9608 305.149C65.4723 301.827 62.5161 298.26 59.5514 293.795C56.9851 289.93 56.0133 288.136 54.7229 284.878C51.903 277.76 50.1609 270.892 49.3397 263.655C48.7578 258.526 48.7058 252.832 49.1954 247.846C51.4678 224.704 63.8676 198.963 84.0556 175.477C84.4881 174.974 84.8276 174.548 84.8099 174.53C84.7922 174.512 83.8906 174.886 82.8063 175.36C72.6294 179.809 63.983 184.454 57.1735 189.13C48.6538 194.982 41.0382 202.153 33.9406 211.009C33.3856 211.701 32.3768 212.92 31.6988 213.716C28.4507 217.533 25.5102 221.823 22.7198 226.818C21.4393 229.11 19.2651 233.524 17.8487 236.707C16.3439 240.088 16.1109 240.484 14.9342 241.662C13.4679 243.13 12.0723 243.988 10.7556 244.231C10.2841 244.318 10.2174 244.306 9.85504 244.066C9.63979 243.924 9.36574 243.65 9.24603 243.458C9.03843 243.124 9.02897 243.021 9.04103 241.223C9.07076 236.789 10.0381 229.893 11.4528 224.031C13.1408 217.035 15.136 211.741 17.8909 206.946C21.6746 200.36 22.9415 198.518 26.4251 194.538C37.3997 182 49.9356 172.71 68.192 163.587C69.595 162.886 70.7272 162.299 70.7082 162.282C70.6891 162.266 69.8025 162.003 68.738 161.699C57.3587 158.444 45.8739 153.127 37.2541 147.122C32.832 144.041 29.6393 141.383 25.9566 137.716C20.5295 132.312 16.3565 126.856 12.3479 119.925C5.82176 108.64 1.27808 94.5301 0.220283 82.2638C-0.108208 78.4546 -0.0651663 73.468 0.321685 70.5159C0.663489 67.9075 1.46603 66.0193 2.39653 65.6342C2.56683 65.5637 2.9116 65.5308 3.21545 65.556C4.58994 65.6698 5.21387 67.0222 5.97754 71.5427C6.68072 75.7051 7.25953 78.003 8.58277 81.8856C10.7182 88.1513 13.2858 94.3179 16.1075 99.9581C23.3292 114.393 31.99 124.513 43.6964 132.195C52.2675 137.819 63.0207 142.403 74.8831 145.49C76.2831 145.855 79.8295 146.661 80.5928 146.789L80.9315 146.845L80.5928 146.565C80.4065 146.411 79.4818 145.68 78.538 144.941C74.97 142.148 71.5526 139.271 67.7702 135.877C65.3555 133.71 58.7083 127.1 56.5415 124.711C41.2984 107.903 31.6876 90.8057 27.0777 72.2958C24.684 62.6846 23.9275 53.3461 24.8565 44.8772C26.0405 34.0843 29.8998 24.7365 36.4466 16.8044C37.841 15.115 41.1108 11.9106 42.8825 10.4973C47.2897 6.98169 51.9136 4.47089 57.2702 2.68459C68.3916 -1.02407 81.3606 -0.88536 93.367 3.07066C96.6196 4.14238 98.3881 4.86855 101.302 6.32908C105.407 8.38621 108.291 10.1311 109.964 11.5702C111.424 12.8264 117.516 18.253 121.819 22.1296C126.14 26.0238 129.44 29.3271 132.363 32.6873C132.814 33.205 133.209 33.6285 133.242 33.6285C133.274 33.6285 133.727 33.139 134.247 32.5408C135.507 31.0921 139.021 27.3882 140.51 25.9379C142.091 24.3983 153.329 14.3083 156.512 11.5702C158.185 10.1311 161.069 8.38621 165.173 6.32908C168.088 4.86855 169.856 4.14238 173.109 3.07066C183.732 -0.429448 195.105 -0.952939 205.42 1.58347C211.214 3.0082 216.605 5.44426 221.302 8.76123C224.995 11.3688 228.832 15.1122 231.677 18.8833C233.399 21.1664 235.224 24.1724 236.549 26.9086C239.486 32.974 241.154 39.2994 241.838 46.9718C242.025 49.063 241.992 55.706 241.784 58.0428C240.081 77.1434 232.485 95.8489 219.288 113.446C214.955 119.225 210.63 124.162 204.757 130.037C198.889 135.907 194.069 140.168 187.549 145.251C186.469 146.093 185.6 146.795 185.617 146.813C185.708 146.904 190.392 145.827 193.025 145.109C204.302 142.034 214.482 137.627 222.626 132.294C227.129 129.346 230.692 126.457 234.419 122.733C238.146 119.009 241.028 115.471 244.148 110.787C249.26 103.113 254.195 92.7368 257.893 81.8856C259.216 78.003 259.795 75.7051 260.498 71.5427C261.262 67.0222 261.886 65.6698 263.26 65.556C263.564 65.5308 263.909 65.5637 264.079 65.6342C265.01 66.0194 265.813 67.9098 266.154 70.5159C266.543 73.5012 266.588 78.587 266.256 82.3121C264.989 96.5327 259.308 112.52 251.201 124.676C247.823 129.741 244.702 133.55 240.519 137.716C234.426 143.783 228.072 148.414 219.75 152.853C213.175 156.361 204.903 159.68 197.593 161.744C196.608 162.022 195.787 162.263 195.769 162.279C195.751 162.295 197.166 163.028 198.914 163.908C210.171 169.57 218.987 175.164 226.704 181.539C232.281 186.146 237.758 191.647 242.34 197.244C243.911 199.162 245.197 201.132 247.917 205.786C249.56 208.597 249.886 209.227 251.064 211.877C252.827 215.842 254.457 221.141 255.644 226.767C256.675 231.653 257.414 237.616 257.436 241.223C257.447 243.02 257.437 243.124 257.23 243.458C257.11 243.65 256.836 243.924 256.621 244.066C256.258 244.306 256.192 244.318 255.72 244.231C254.403 243.988 253.008 243.13 251.542 241.662C250.365 240.485 250.137 240.097 248.631 236.712C244.273 226.92 239.962 219.782 234.656 213.569C234.043 212.851 233.087 211.698 232.532 211.007C230.993 209.091 229.237 207.019 227.741 205.355C225.976 203.392 221.56 198.978 219.653 197.27C211.802 190.24 203.621 184.908 191.84 179.141C188.037 177.279 181.761 174.434 181.667 174.529C181.649 174.547 182.137 175.147 182.751 175.864C199.645 195.551 211.413 217.668 215.727 237.839C217.617 246.674 218.086 255.227 217.141 263.627C216.331 270.828 214.557 277.826 211.751 284.878C210.436 288.185 209.562 289.805 207.031 293.629C203.994 298.219 200.907 301.957 197.502 305.171C194.876 307.649 192.926 308.962 189.149 310.792C187.265 311.705 186.259 312 185.029 312C184.136 312 183.541 311.752 183.198 311.236C182.919 310.816 182.921 310.419 183.211 309.277C183.683 307.419 184.132 306.482 185.503 304.5C187.837 301.124 189.37 298.538 191.144 294.983C195.797 285.655 198.589 274.866 199.138 264.09C199.195 262.973 199.316 261.233 199.408 260.222C199.636 257.7 199.631 252.302 199.397 249.925C198.481 240.601 195.898 231.644 191.159 221.353C186.141 210.458 178.502 198.648 170.018 188.672C166.352 184.36 161.144 178.814 161.005 179.072C160.968 179.14 160.885 179.522 160.821 179.921C160.757 180.32 160.617 181.052 160.51 181.547C160.403 182.043 160.331 182.462 160.349 182.48C160.368 182.497 160.666 182.628 161.012 182.771C163.235 183.69 165.571 185.415 166.822 187.061C167.463 187.904 168.098 189.231 168.379 190.315C168.688 191.507 168.694 193.501 168.392 194.715C166.899 200.724 160.812 209.27 154.877 213.692C153.071 215.037 150.907 215.692 149.579 215.294C149.154 215.167 148.473 214.625 148.383 214.344C148.34 214.209 148.539 213.85 149.092 213.065C151.096 210.216 153.098 206.546 154.354 203.417C154.93 201.979 155.847 198.848 155.993 197.817C156.232 196.135 155.93 195.003 154.97 193.971L154.357 193.313L153.451 194.186C152.952 194.666 152.174 195.356 151.722 195.72L150.899 196.382L150.688 197.24C150.253 199.009 149.064 200.803 147.486 202.072C145.362 203.778 142.749 204.871 140.802 204.866C139.265 204.862 137.478 203.979 136.604 202.792L136.286 202.361H133.238H130.19L129.872 202.792C128.998 203.979 127.211 204.862 125.674 204.866C123.726 204.871 121.113 203.778 118.99 202.072C117.412 200.803 116.223 199.009 115.788 197.24L115.577 196.382L114.754 195.72C114.302 195.356 113.524 194.666 113.025 194.186L112.119 193.313L111.506 193.971C110.546 195.003 110.244 196.135 110.482 197.817C110.629 198.849 111.546 201.981 112.123 203.417C113.388 206.567 115.462 210.357 117.477 213.201C117.842 213.716 118.141 214.197 118.141 214.27C118.141 214.477 117.553 215.03 117.125 215.225C116.257 215.622 114.516 215.358 113.085 214.614C109.944 212.982 105.02 207.843 101.917 202.961C100.061 200.041 98.5692 196.803 98.0493 194.57C97.7883 193.448 97.8075 191.478 98.0906 190.334C98.6251 188.175 99.9174 186.346 102.035 184.752C103.021 184.01 104.691 183.05 105.563 182.724C105.881 182.605 106.141 182.473 106.141 182.43C106.141 182.388 106.058 181.969 105.956 181.5C105.854 181.03 105.719 180.32 105.655 179.921C105.591 179.522 105.508 179.14 105.471 179.072C105.426 178.988 104.944 179.418 104.006 180.377C92.0993 192.553 81.8161 207.241 75.3171 221.353C70.5833 231.632 67.9972 240.601 67.0782 249.925C66.8478 252.263 66.8415 257.804 67.0665 260.174C67.1549 261.105 67.2544 262.497 67.2877 263.268C67.7663 274.367 70.5781 285.452 75.3322 294.983C77.1059 298.538 78.6387 301.124 80.9729 304.5C81.9993 305.985 82.3096 306.516 82.6342 307.345C83.0902 308.511 83.496 310.019 83.496 310.548C83.496 311.034 83.1575 311.515 82.628 311.782C82.0792 312.059 80.8961 312.065 79.7815 311.796ZM134.867 144.904C139.291 141.945 148.232 135.058 152.538 131.292C154.926 129.205 157.042 127.204 157.849 126.272C160.614 123.079 163.465 119.171 165.478 115.815C167.449 112.528 169.515 108.302 169.667 107.247C169.704 106.987 169.858 106.383 170.009 105.905C170.372 104.755 170.746 103.038 170.89 101.857C171.072 100.363 170.955 97.5833 170.648 96.1234C168.997 88.2678 162.899 82.5115 155 81.3512C152.847 81.0351 150.01 81.1906 147.802 81.7457C143.47 82.835 139.373 85.7093 137.016 89.3121C135.154 92.1588 134.561 93.1058 133.964 94.1871C133.591 94.8617 133.264 95.4133 133.238 95.413C133.211 95.413 133.02 95.0972 132.813 94.712C132.268 93.6977 131.541 92.4877 130.911 91.5459C130.609 91.0938 130.176 90.4194 129.949 90.0472C127.462 85.9771 123.292 82.9071 118.673 81.7457C115.725 81.0044 112.428 81.0044 109.48 81.7457C106.961 82.3791 104.347 83.6846 102.374 85.2951C99.0074 88.043 96.7367 91.7962 95.8295 96.1128C95.5204 97.5836 95.4027 100.358 95.5859 101.857C95.7301 103.038 96.1037 104.755 96.4665 105.905C96.6175 106.383 96.7719 106.992 96.8096 107.258C96.8868 107.803 98.0572 110.454 99.0778 112.396C101.432 116.875 104.235 121.014 107.814 125.296C109.321 127.099 110.803 128.551 113.89 131.25C117.056 134.018 123.813 139.334 128.399 142.665C129.749 143.645 133.118 145.96 133.222 145.977C133.239 145.98 133.98 145.497 134.867 144.904ZM79.8164 121.254C76.0871 109.839 74.8819 98.6619 76.2481 88.1619C76.909 83.0825 78.3717 78.096 80.3751 74.0934C84.2738 66.304 91.5312 59.6265 103.103 53.1815C111.791 48.343 120.47 45.2065 127.093 44.5123C129.412 44.2691 133.148 44.0472 134.011 44.1013C139.926 44.4727 141.672 44.7077 145.288 45.6198C152.435 47.4223 161.925 51.856 169.722 57.0355C181.668 64.9716 187.378 72.9937 189.742 85.1645C191.438 93.8961 191.016 104.535 188.577 114.558C188.102 116.51 187.108 119.962 186.523 121.69C186.159 122.768 186.119 122.951 186.276 122.842C187.23 122.174 194.076 115.384 196.675 112.528C206.576 101.647 213.684 90.6979 218.244 79.3032C223.485 66.2061 225.216 53.4114 223.142 43.1042C221.345 34.1727 216.441 26.8063 209.399 22.4642C201.894 17.8358 191.319 16.7403 180.008 19.4192C177.169 20.0916 172.36 21.7094 169.114 23.0839C165.966 24.417 163.496 25.5134 162.866 25.8572C160.884 26.9389 158.663 28.3192 155.448 30.4668C153.235 31.9449 153.307 31.8952 150.548 33.8354C145.462 37.4113 138.269 41.5315 135.133 42.6652C133.364 43.3048 133.242 43.3097 131.732 42.8038C128.634 41.7656 121.131 37.5065 115.915 33.8248C114.984 33.1673 113.677 32.2591 113.012 31.8065C112.347 31.354 111.476 30.7608 111.077 30.4883C107.779 28.2371 103.486 25.6714 102.125 25.1378C101.859 25.0335 100.699 24.5314 99.5466 24.022C94.9395 21.985 90.0791 20.2745 86.4677 19.4192C78.4514 17.5206 70.6727 17.5061 64.1468 19.3775C59.6126 20.6777 55.6941 22.9209 52.3575 26.1265C42.8628 35.2484 40.1032 50.0154 44.5438 67.9376C48.3842 83.4372 56.7437 98.1893 69.8388 112.576C72.1409 115.105 80.089 122.97 80.3428 122.97C80.3616 122.97 80.1247 122.198 79.8164 121.254Z" fill="white"/>
</svg>
